<svg width="1600" height="900" viewBox="0 0 1600 900" xmlns="http://www.w3.org/2000/svg">
  <defs>
    <linearGradient id="gradient" x1="0%" y1="0%" x2="100%" y2="100%">
      <stop offset="0%" stop-color="#05070A" />
      <stop offset="45%" stop-color="#10151A" />
      <stop offset="100%" stop-color="#030407" />
    </linearGradient>
    <radialGradient id="focus" cx="50%" cy="45%" r="55%">
      <stop offset="0%" stop-color="rgba(0,187,255,0.55)" />
      <stop offset="45%" stop-color="rgba(0,187,255,0.08)" />
      <stop offset="100%" stop-color="rgba(11,15,18,0.9)" />
    </radialGradient>
  </defs>
  <rect width="1600" height="900" fill="url(#gradient)" />
  <ellipse cx="1100" cy="280" rx="420" ry="320" fill="url(#focus)" />
  <g fill="none" stroke="#0F1C24" stroke-width="2" opacity="0.4">
    <circle cx="800" cy="450" r="180" />
    <circle cx="800" cy="450" r="320" />
    <circle cx="800" cy="450" r="460" />
  </g>
  <g opacity="0.55" fill="#111922">
    <path d="M420 620c60-140 180-260 340-320 140-52 290-40 420 40l-36 70c-112-60-240-70-356-28-140 52-238 176-284 310z" />
    <path d="M960 180c100 20 176 84 236 168l-68 44c-48-66-102-110-176-120z" opacity="0.4" />
  </g>
  <g fill="#0B0F12" opacity="0.75">
    <path d="M360 300l120-40 80 150-40 60-160-120z" />
    <path d="M1180 640l120-60 80 110-140 80-60-130z" />
  </g>
</svg>
