<svg width="720" height="960" viewBox="0 0 720 960" xmlns="http://www.w3.org/2000/svg">
  <defs>
    <linearGradient id="night" x1="0%" y1="0%" x2="0%" y2="100%">
      <stop offset="0%" stop-color="#05090D" />
      <stop offset="100%" stop-color="#121921" />
    </linearGradient>
  </defs>
  <rect width="720" height="960" fill="url(#night)" />
  <g fill="#0C1319">
    <rect x="80" y="380" width="140" height="320" rx="12" />
    <rect x="240" y="320" width="160" height="400" rx="14" />
    <rect x="420" y="360" width="120" height="360" rx="12" />
    <rect x="560" y="300" width="100" height="420" rx="14" />
  </g>
  <g fill="#1F2A32">
    <rect x="112" y="420" width="76" height="120" rx="6" />
    <rect x="280" y="360" width="96" height="160" rx="8" />
    <rect x="452" y="400" width="64" height="140" rx="6" />
    <rect x="584" y="340" width="58" height="180" rx="6" />
  </g>
  <rect x="60" y="700" width="600" height="24" fill="#00BBFF" opacity="0.35" />
  <rect x="120" y="730" width="480" height="12" fill="#C1A16A" opacity="0.25" />
  <circle cx="520" cy="220" r="34" fill="#00BBFF" opacity="0.5" />
  <circle cx="200" cy="220" r="22" fill="#C1A16A" opacity="0.4" />
</svg>
